<?xml version="1.0" encoding="utf-8"?>
<!-- Generator: Adobe Illustrator 21.1.0, SVG Export Plug-In . SVG Version: 6.00 Build 0)  -->
<svg version="1.1" id="Layer_1" xmlns="http://www.w3.org/2000/svg" xmlns:xlink="http://www.w3.org/1999/xlink" x="0px" y="0px"
	 viewBox="0 0 140 288" style="enable-background:new 0 0 140 288;" xml:space="preserve">
<style type="text/css">
	.st0{fill:#FFFFFF;}
</style>
<g>
	<polygon class="st0" points="3.5,143.8 3.8,143.5 3.5,143.2 112.9,5.8 132.1,29.9 41.6,143.5 132.1,257.1 112.9,281.2 	"/>
	<path class="st0" d="M112.9,6.6l18.5,23.3l-90,113l-0.5,0.6l0.5,0.6l90,113l-18.5,23.3L4.2,143.8l0.3-0.3l-0.3-0.3L112.9,6.6
		 M112.9,5L2.9,143.2l0.3,0.3l-0.3,0.3l110,138.2l19.8-24.9L42.3,143.5l90.5-113.6L112.9,5L112.9,5z"/>
</g>
</svg>
