<svg xmlns="http://www.w3.org/2000/svg" xmlns:xlink="http://www.w3.org/1999/xlink" viewBox="0 0 397 168"><defs><style>.cls-1{isolation:isolate;}.cls-2,.cls-8{mix-blend-mode:multiply;}.cls-3{fill:#fff;}.cls-4{opacity:0.31;}.cls-5{opacity:0.81;}.cls-6{fill:#c4c4c4;}.cls-7{fill:url(#New_Gradient_Swatch_2);}.cls-8{fill:#e6e7e8;}.cls-9{fill:#323232;}</style><linearGradient id="New_Gradient_Swatch_2" x1="44.56" y1="140.49" x2="44.56" y2="-1.73" gradientTransform="translate(-21.85 22.82) rotate(-11.46)" gradientUnits="userSpaceOnUse"><stop offset="0" stop-color="#4587bb"/><stop offset="0.33" stop-color="#469039"/><stop offset="0.66" stop-color="#ff9812"/><stop offset="1" stop-color="#e53123"/></linearGradient></defs><title>logolittle</title><g class="cls-1"><g id="Layer_1" data-name="Layer 1"><path d="M60.86,107.1l-18-88.93A16.44,16.44,0,0,0,10.62,24.7l18,88.93a29.55,29.55,0,1,0,32.22-6.53Z"/><path d="M53.16,114.06,34.33,21.14a7.51,7.51,0,0,0-8.85-5.87h0a7.51,7.51,0,0,0-5.87,8.85L38.44,117a20.66,20.66,0,1,0,14.72-3Z"/><g class="cls-2"><path d="M78.59,128.57A29.52,29.52,0,0,0,60.86,107.1l-18-88.93A16.44,16.44,0,0,0,23.46,5.33l32,158.07A29.55,29.55,0,0,0,78.59,128.57Z"/></g><path d="M22.83,10.28c.4-.69-8.78,2.53-8.54,11.37.15,5.74,4,17.08,3.75,18.52"/><path class="cls-3" d="M22.83,10.28c0-.11-.12-.06-.19,0a2,2,0,0,0-.25.09l-.47.24a9.93,9.93,0,0,0-.9.56,14.49,14.49,0,0,0-1.65,1.3,13.4,13.4,0,0,0-2.59,3.14,11.5,11.5,0,0,0-1.36,7.69c.14,1.37.39,2.77.66,4.16s.55,2.79.81,4.2.54,2.81.78,4.24c.11.71.23,1.43.31,2.15A8.42,8.42,0,0,1,18,40.18a11.72,11.72,0,0,0-.61-2.06l-.72-2c-.47-1.36-.94-2.72-1.35-4.1a50.49,50.49,0,0,1-1.94-8.51,14.08,14.08,0,0,1,.14-4.58,11,11,0,0,1,1.9-4.2,12.17,12.17,0,0,1,3.3-3.07,12.69,12.69,0,0,1,2-1,9.56,9.56,0,0,1,1-.35l.54-.11a2,2,0,0,1,.28,0C22.69,10.16,22.89,10.17,22.83,10.28Z"/><g class="cls-4"><polygon points="28.32 15.16 10.83 18.8 11.48 16.37 27.88 12.95 28.32 15.16"/><rect x="11.39" y="24.98" width="13.04" height="2.25" transform="matrix(0.98, -0.2, 0.2, 0.98, -4.83, 4.08)"/><rect x="13.27" y="33.99" width="18.9" height="2.25" transform="translate(-6.52 5.21) rotate(-11.46)"/><rect x="15.27" y="44.16" width="13.04" height="2.25" transform="translate(-8.56 5.23) rotate(-11.46)"/><rect x="17.16" y="53.16" width="18.9" height="2.25" transform="translate(-10.25 6.37) rotate(-11.46)"/><rect x="19.16" y="63.33" width="13.04" height="2.25" transform="translate(-12.29 6.39) rotate(-11.46)"/><rect x="21.04" y="72.34" width="18.9" height="2.25" transform="translate(-13.98 7.52) rotate(-11.46)"/><rect x="23.05" y="82.51" width="13.04" height="2.25" transform="translate(-16.02 7.54) rotate(-11.46)"/><rect x="24.93" y="91.51" width="18.9" height="2.25" transform="translate(-17.72 8.68) rotate(-11.46)"/><rect x="26.93" y="101.68" width="13.04" height="2.25" transform="translate(-19.76 8.69) rotate(-11.46)"/><rect x="28.82" y="110.69" width="18.9" height="2.25" transform="translate(-21.45 9.83) rotate(-11.46)"/></g><path d="M39.51,57.85a18.73,18.73,0,0,1-4.93,2.36A18.73,18.73,0,0,1,29.12,60c-4.69-.56-16,.75-22.55,4.42l1,3.84A1.49,1.49,0,0,1,9.5,69c.71,1.32,2.86,6.91,5.11,8.81,2.79,2.36,7.6,1.5,10.81.7,4.32-1.07,6.78-3.58,7.33-7.11s.67-6.47,1.27-7.52a1.85,1.85,0,0,1,2.53-.51c1,.73,2.22,3.4,4.1,6.43s5.13,4.39,9.52,3.69c3.26-.52,8-1.59,9.68-4.85C61.17,66,61,60,61.11,58.54a1.49,1.49,0,0,1,1.47-1.47L62,53.14C54.52,52.32,43.62,55.5,39.51,57.85ZM8.24,65.94c-.06-.28.6-.64,1.47-.82s1.62-.1,1.68.18-.6.64-1.47.82S8.29,66.22,8.24,65.94ZM30.79,71.8c-.72,2.44-2.46,4-5.34,4.93s-6.52,1.11-8.51.41c-1.75-.62-3.11-3.41-3.85-5.12s-2.17-5.41-.6-7,6.14-2.66,9.22-3.09c2.32-.32,7.41-.72,8.7.87S31.38,69.83,30.79,71.8ZM59,62.72c0,1.85-.18,5-1.55,6.21-1.56,1.42-5,2.71-8,2.94s-5.22-.5-6.84-2.46c-1.31-1.59-3.75-6.5-3.18-8.47s5.41-3.58,7.68-4.19c3-.8,7.61-1.64,9.69-.75S59,60.87,59,62.72ZM59.6,56c-.87.18-1.62.1-1.68-.18s.6-.64,1.47-.82,1.62-.1,1.68.18S60.47,55.87,59.6,56Z"/><g class="cls-5"><path d="M21.61,60.87a4.53,4.53,0,0,0-1.34.27l-1.34.38-2.67.78-2.67.77c-.44.13-.89.26-1.32.41-.22.07-.44.14-.65.23l-.31.15c-.08.06-.22.12-.2.24,0-.26.27-.39.43-.52s.41-.24.61-.36c.42-.21.85-.39,1.29-.57.87-.36,1.76-.63,2.65-.9s1.8-.49,2.72-.66A8.3,8.3,0,0,1,21.61,60.87Z"/></g><path d="M57.13,99.58l3.53-10.26-.89-1.42.09-.28H37.37l-5.48,5.8-7.23,21,1.48,5.8h.22l.94,1.43H46.11l5.62-6.42L55.61,104l-.93-1.42.09-.27H43l-2.54,7.4H39.42L42.9,99.58Zm-20,10.75h3.75l2.54-7.4H53.92l-3.66,10.65-5.26,6H26.8l-1.42-5.49,7-20.38,5.22-5.48H59l-3.22,9.28H41.57Z"/><polygon points="41.57 97.53 37.15 110.33 40.89 110.33 43.44 102.93 53.92 102.93 50.26 113.59 45 119.61 26.8 119.61 25.38 114.12 32.38 93.74 37.6 88.25 59.01 88.25 55.79 97.53 41.57 97.53"/><path d="M72.6,102.21l-3.7,6.69h2.86l.94-6.69Zm0,0-3.7,6.69h2.86l.94-6.69ZM85.58,88l0,0,.09-.41H69.79l-19.26,32.6h.3l.94,1.43h12l1.83-3h4.46l0,1.52h.23l.94,1.43h12l3.12-32.33Zm-3.79,31.62H70.73l.18-3H64.39l-1.82,3h-11l18.5-31.36H84.87Zm-10-10.71.94-6.69H72.6l-3.7,6.69Zm.84-6.69-3.7,6.69h2.86l.94-6.69Zm0,0-3.7,6.69h2.86l.94-6.69Z"/><path d="M70.06,88.25l-18.5,31.36h11l1.82-3h6.52l-.18,3H81.79l3.07-31.36Zm1.7,20.65H68.9l3.7-6.69h.09Z"/><path d="M133.74,89.33,133,88.22v0l-.14-.63H96.06l-11.24,32.6h.27l.94,1.43H97.49l7.58-22.08h1.12l-7.1,20.65h.27l.94,1.43H111.8l7.58-22.08h1.11l-7.09,20.65h.27l.89,1.43h11.51L135.22,95Zm-9,30.28H114.25l7.58-22.08H118l-7.58,22.08H99.94l7.58-22.08h-3.8l-7.58,22.08H85.67l10.8-31.36h35.77l1.38,5.48Z"/><polygon points="133.61 93.74 124.73 119.61 114.25 119.61 121.83 97.53 118.05 97.53 110.47 119.61 99.94 119.61 107.53 97.53 103.73 97.53 96.15 119.61 85.67 119.61 96.46 88.25 132.23 88.25 133.61 93.74"/><path d="M163.58,89.33l-.89-1.42.09-.28H143.1l-5.7,6.56-6.74,19.49,1.2,6.56h.18l.89,1.43h19.54L156,111.4l-.94-1.39.09-.27h-2.68l3-8.83-.89-1.39h5.48Zm-16.23,8.16-.81,2.36h7.28L151,108h-7.27l-.8,2.37H154.3l-3.16,9.23H132.4l-1-6.07L138,94.28l5.22-6h18.73l-3.21,9.23Z"/><polygon points="147.34 97.48 146.54 99.85 153.81 99.85 151 108.01 143.73 108.01 142.93 110.38 154.3 110.38 151.14 119.61 132.4 119.61 131.38 113.54 137.98 94.28 143.2 88.25 161.93 88.25 158.72 97.48 147.34 97.48"/><path d="M204.3,89.15l-.95-1.9-34.79.38-5.71,6.56-3.25,9.41,2.32,5h.18l.71,1.12H157.5l-3.61,10.47h.27l.94,1.43h19.35l5.62-6.47,0,0,.21-.61,2.94-8.58-1.75-5-.71-1.11-.13-.28h5Zm-31.5,8.34L172,99.85h8l1.65,4.72-3.07,9-5.27,6.07h-18.6l3.17-9.23h11.28L170,108H162.5l-2.14-4.72,3.08-9,5.22-6h18.81l-3.21,9.23Z"/><polygon points="172.8 97.48 171.99 99.85 180.02 99.85 181.67 104.57 178.6 113.54 173.33 119.61 154.74 119.61 157.9 110.38 169.19 110.38 169.98 108.01 162.5 108.01 160.35 103.28 163.44 94.28 168.65 88.25 202.4 88.2 184.26 97.48 172.8 97.48"/><path d="M141.2,126.55l-.49-.8,0-.14H129.87l-3.15,3.62-5,14.4h.14l.52.8h6.34L131,138h4l1.75-5.06-.49-.77h3Zm-9,4.51-.45,1.31h4l-1.56,4.52h-4l-2.2,6.41h-5.8l4.81-14,2.88-3.33h10.36l-1.77,5.1Z"/><polygon points="132.21 131.05 131.77 132.36 135.79 132.36 134.23 136.88 130.22 136.88 128.02 143.29 122.22 143.29 127.03 129.28 129.92 125.95 140.28 125.95 138.5 131.05 132.21 131.05"/><path d="M146.84,131l-2.47,7.13h2.07l2.47-7.13Zm-.62,6.78h-.59l1.94-5.65h.6Zm.62-6.78-2.47,7.13h2.07l2.47-7.13Zm-.62,6.78h-.59l1.94-5.65h.6Zm9.13-11.3-.42-.65,0,0,0-.29H144.45l-3.19,3.78L137.59,140l.71,3.6h.1l.52.8h10.41l3-3.19,3.78-10.93Zm-3.82,13.74-2.87,3H138.61L138,140l3.62-10.51,3-3.5h10l.69,3.56Zm-7.15-2.1h2.07l2.47-7.13h-2.07Zm3.8-6-2,5.65h-.59l1.94-5.65Z"/><path d="M154.54,125.95h-10l-3,3.5L138,140l.65,3.33h10.06l2.87-3,3.7-10.75Zm-8.09,12.21h-2.07l2.47-7.13h2.07Z"/><path d="M172.28,130.31l-.74-3.8-.43-.65,0,0,0-.29H158.76l-6.21,18h.14l.52.8h6.34l.74-2.2.17,1.4h.12l.52.8h6.31l2-5.67-.52-.77,0-.14h-.37l1.76-1.76Zm-5.87,7.87h2l-1.76,5.1h-5.86l-.47-4.29h0l-1.48,4.29H153l6-17.34h11.75l.69,3.56-1.93,5.6Zm-5.75-3.5h1.9l2.85-4.74h-2.85Zm2.13-4.2,1.6.08-1.83,3.17h-.95Z"/><path d="M171.41,129.51l-.69-3.56H159l-6,17.34h5.8l1.48-4.29h0l.47,4.29h5.86l1.76-5.1h-2l3.08-3.08Zm-8.86,5.18h-1.9l1.9-4.74h2.85Z"/><path d="M231.75,117.12l-.85-1.38.09-.26H212.06l-5.49,6.31-6.48,18.75,1.16,6.31h.17l.86,1.38h18.79l3.4-9.87-.9-1.34.09-.26h-2.58l2.92-8.49-.86-1.33h5.28ZM216.13,125l-.77,2.27h7l-2.7,7.86h-7l-.77,2.28h10.94l-3,8.88h-18l-1-5.83,6.36-18.54,5-5.79h18L227.07,125Z"/><polygon points="216.13 124.97 215.36 127.24 222.35 127.24 219.65 135.09 212.66 135.09 211.89 137.37 222.83 137.37 219.78 146.25 201.76 146.25 200.77 140.42 207.13 121.88 212.15 116.09 230.16 116.09 227.07 124.97 216.13 124.97"/><path d="M256.38,117.08l-.73-1.12,0,0-.09-.52H234.16l-10.82,31.37h.26l.9,1.38h11l7.34-21.33h1l-6.86,20h.26l.9,1.38h11l8.45-24.54Zm-8.45,29.17H237.85l7.33-21.33h-3.61l-7.33,21.33H224.16l10.38-30.16H255l1.2,6.18Z"/><polygon points="256.17 122.27 247.92 146.25 237.85 146.25 245.18 124.92 241.58 124.92 234.24 146.25 224.16 146.25 234.54 116.09 254.96 116.09 256.17 122.27"/><path d="M273.45,115.74l.09-.26H262.3l-10.81,31.37h.26l.9,1.38h11l10.68-31.11Zm-11.11,30.51h-10l10.38-30.16h10Z"/><polygon points="272.72 116.09 262.34 146.25 252.31 146.25 262.69 116.09 272.72 116.09"/><path d="M301.64,115.74l.09-.26H290.45l-7.33,21.24H282l6.74-19.61-.85-1.38.09-.26H276.72L268,140.59l1.2,6.26h.17l.9,1.38h18.19l5.19-5.54,8.8-25.57ZM292.33,141l-5,5.28H269.76l-1.07-5.8,8.41-24.36h10.09l-7.33,21.23h3.64l7.33-21.23h10.09Z"/><polygon points="300.91 116.09 292.33 140.97 287.35 146.25 269.76 146.25 268.69 140.46 277.1 116.09 287.18 116.09 279.85 137.32 283.49 137.32 290.83 116.09 300.91 116.09"/><path d="M328,117.12l-.86-1.38.09-.26h-19l-5.49,6.31-3.13,9.05,2.23,4.85H302l.69,1.07h-5.11l-3.47,10.09h.26l.9,1.38h18.62l5.41-6.22,3-8.88-1.68-4.85L320,127.2l-.13-.26h4.81ZM312.29,125l-.78,2.27h7.72l1.59,4.55-3,8.62-5.07,5.83H294.91l3-8.88H308.8l.78-2.28h-7.21l-2.06-4.54,3-8.67,5-5.79h18.1L323.31,125Z"/><polygon points="312.29 124.97 311.51 127.24 319.23 127.24 320.83 131.79 317.87 140.42 312.8 146.25 294.91 146.25 297.95 137.37 308.81 137.37 309.58 135.09 302.37 135.09 300.31 130.55 303.27 121.88 308.29 116.09 326.39 116.09 323.31 124.97 312.29 124.97"/><path d="M353.39,117.12l-.86-1.38.09-.26H333.69l-5.49,6.31-6.47,18.75,1.16,6.31h.17l.85,1.38H342.7l3.39-9.87-.9-1.34.09-.26H342.7l2.91-8.49-.85-1.33H350ZM337.77,125l-.78,2.27h7l-2.7,7.86h-7l-.78,2.28h10.94l-3,8.88h-18l-1-5.83,6.35-18.54,5-5.79h18L348.71,125Z"/><polygon points="337.77 124.97 336.99 127.24 344 127.24 341.29 135.09 334.3 135.09 333.52 137.37 344.46 137.37 341.41 146.25 323.4 146.25 322.41 140.42 328.76 121.88 333.78 116.09 351.79 116.09 348.71 124.97 337.77 124.97"/><path d="M395,116.32l-.93-1.86-34.14.37-5.6,6.43-3.19,9.23,2.28,4.94h.18l.7,1.1h-5.21l-3.54,10.28h.26l.92,1.41h19l5.51-6.35,0,0,.2-.6,2.89-8.42-1.71-4.94-.7-1.09-.13-.27h4.9Zm-30.91,8.18-.79,2.32h7.88l1.62,4.64-3,8.8-5.17,6H346.37l3.11-9.06h11.07l.78-2.33H354l-2.1-4.64,3-8.83,5.12-5.91h18.46l-3.15,9.06Z"/><polygon points="364.09 124.5 363.3 126.82 371.18 126.82 372.8 131.46 369.78 140.26 364.62 146.21 346.37 146.21 349.48 137.16 360.55 137.16 361.33 134.83 353.98 134.83 351.88 130.19 354.91 121.36 360.03 115.45 393.14 115.39 375.34 124.5 364.09 124.5"/><path d="M202.82,127.08l3.38-9.82-.85-1.36.08-.26H183.9l-5.25,5.55-6.92,20.12,1.42,5.55h.21l.9,1.37h18l5.38-6.15,3.72-10.77-.89-1.36.08-.25H189.32l-2.44,7.09h-1l3.34-9.7Zm-19.14,10.3h3.59l2.44-7.09h10l-3.51,10.21-5,5.77H173.77L172.41,141l6.71-19.52,5-5.25h20.5l-3.08,8.89H187.91Z"/><polygon points="187.91 125.11 183.68 137.37 187.27 137.37 189.7 130.29 199.74 130.29 196.24 140.49 191.2 146.26 173.77 146.26 172.41 141 179.12 121.48 184.11 116.23 204.62 116.23 201.53 125.11 187.91 125.11"/><path class="cls-6" d="M56.86,104.1l-18-88.93A16.44,16.44,0,0,0,6.62,21.7l18,88.93a29.55,29.55,0,1,0,32.22-6.53Z"/><path class="cls-7" d="M49.16,111.06,30.33,18.14a7.51,7.51,0,0,0-8.85-5.87h0a7.51,7.51,0,0,0-5.87,8.85L34.44,114a20.66,20.66,0,1,0,14.72-3Z"/><path class="cls-8" d="M74.59,125.57A29.52,29.52,0,0,0,56.86,104.1l-18-88.93A16.44,16.44,0,0,0,19.46,2.33l32,158.07A29.55,29.55,0,0,0,74.59,125.57Z"/><path class="cls-3" d="M18.83,7.28c0-.11-.12-.06-.19,0a2,2,0,0,0-.25.09l-.47.24a9.93,9.93,0,0,0-.9.56,14.49,14.49,0,0,0-1.65,1.3,13.4,13.4,0,0,0-2.59,3.14,11.5,11.5,0,0,0-1.36,7.69c.14,1.37.39,2.77.66,4.16s.55,2.79.81,4.2.54,2.81.78,4.24c.11.71.23,1.43.31,2.15A8.42,8.42,0,0,1,14,37.18a11.72,11.72,0,0,0-.61-2.06l-.72-2c-.47-1.36-.94-2.72-1.35-4.1a50.49,50.49,0,0,1-1.94-8.51,14.08,14.08,0,0,1,.14-4.58,11,11,0,0,1,1.9-4.2,12.17,12.17,0,0,1,3.3-3.07,12.69,12.69,0,0,1,2-1,9.56,9.56,0,0,1,1-.35l.54-.11a2,2,0,0,1,.28,0C18.69,7.16,18.89,7.17,18.83,7.28Z"/><g class="cls-4"><polygon class="cls-3" points="24.32 12.16 6.83 15.8 7.49 13.37 23.88 9.95 24.32 12.16"/><rect class="cls-3" x="7.39" y="21.98" width="13.04" height="2.25" transform="matrix(0.98, -0.2, 0.2, 0.98, -4.31, 3.22)"/><rect class="cls-3" x="9.27" y="30.99" width="18.9" height="2.25" transform="translate(-6.01 4.36) rotate(-11.46)"/><rect class="cls-3" x="11.27" y="41.16" width="13.04" height="2.25" transform="translate(-8.04 4.38) rotate(-11.46)"/><rect class="cls-3" x="13.16" y="50.16" width="18.9" height="2.25" transform="translate(-9.74 5.51) rotate(-11.46)"/><rect class="cls-3" x="15.16" y="60.33" width="13.04" height="2.25" transform="translate(-11.78 5.53) rotate(-11.46)"/><rect class="cls-3" x="17.04" y="69.34" width="18.9" height="2.25" transform="translate(-13.47 6.67) rotate(-11.46)"/><rect class="cls-3" x="19.05" y="79.51" width="13.04" height="2.25" transform="translate(-15.51 6.69) rotate(-11.46)"/><rect class="cls-3" x="20.93" y="88.51" width="18.9" height="2.25" transform="translate(-17.2 7.82) rotate(-11.46)"/><rect class="cls-3" x="22.93" y="98.68" width="13.04" height="2.25" transform="translate(-19.24 7.84) rotate(-11.46)"/><rect class="cls-3" x="24.82" y="107.69" width="18.9" height="2.25" transform="translate(-20.93 8.98) rotate(-11.46)"/></g><path class="cls-9" d="M35.51,54.85a18.73,18.73,0,0,1-4.93,2.36A18.73,18.73,0,0,1,25.12,57c-4.69-.56-16,.75-22.55,4.42l1,3.84A1.49,1.49,0,0,1,5.5,66c.71,1.32,2.86,6.91,5.11,8.81,2.79,2.36,7.6,1.5,10.81.7,4.32-1.07,6.78-3.58,7.33-7.11s.67-6.47,1.27-7.52a1.85,1.85,0,0,1,2.53-.51c1,.73,2.22,3.4,4.1,6.43s5.13,4.39,9.52,3.69c3.26-.52,8-1.59,9.68-4.85C57.17,63,57,57,57.11,55.54a1.49,1.49,0,0,1,1.47-1.47L58,50.14C50.52,49.32,39.62,52.5,35.51,54.85ZM4.24,62.94c-.06-.28.6-.64,1.47-.82s1.62-.1,1.68.18-.6.64-1.47.82S4.29,63.22,4.24,62.94ZM26.79,68.8c-.72,2.44-2.46,4-5.34,4.93s-6.52,1.11-8.51.41c-1.75-.62-3.11-3.41-3.85-5.12s-2.17-5.41-.6-7,6.14-2.66,9.22-3.09c2.32-.32,7.41-.72,8.7.87S27.38,66.83,26.79,68.8ZM55,59.72c0,1.85-.18,5-1.55,6.21-1.56,1.42-5,2.71-8,2.94s-5.22-.5-6.84-2.46c-1.31-1.59-3.75-6.5-3.18-8.47s5.41-3.58,7.68-4.19c3-.8,7.61-1.64,9.69-.75S55,57.87,55,59.72ZM55.6,53c-.87.18-1.62.1-1.68-.18s.6-.64,1.47-.82,1.62-.1,1.68.18S56.47,52.87,55.6,53Z"/><g class="cls-5"><path class="cls-3" d="M17.61,57.87a4.53,4.53,0,0,0-1.34.27l-1.34.38-2.67.78-2.67.77c-.44.13-.89.26-1.32.41-.22.07-.44.14-.65.23l-.31.15c-.08.06-.22.12-.2.24,0-.26.27-.39.43-.52s.41-.24.61-.36c.42-.21.85-.39,1.29-.57.87-.36,1.76-.63,2.65-.9s1.8-.49,2.72-.66A8.3,8.3,0,0,1,17.61,57.87Z"/></g><path d="M53.13,96.58l3.53-10.26-.89-1.42.09-.28H33.37l-5.48,5.8-7.23,21,1.48,5.8h.22l.94,1.43H42.11l5.62-6.42L51.61,101l-.93-1.42.09-.27H39l-2.54,7.4H35.42L38.9,96.58Zm-20,10.75h3.75l2.54-7.4H49.92l-3.66,10.65-5.26,6H22.8l-1.42-5.49,7-20.38,5.22-5.48H55l-3.22,9.28H37.57Z"/><polygon class="cls-3" points="37.57 94.53 33.15 107.33 36.89 107.33 39.44 99.93 49.92 99.93 46.26 110.59 41 116.61 22.8 116.61 21.38 111.12 28.38 90.74 33.6 85.25 55.01 85.25 51.79 94.53 37.57 94.53"/><path d="M68.6,99.21l-3.7,6.69h2.86l.94-6.69Zm0,0-3.7,6.69h2.86l.94-6.69ZM81.58,85l0,0,.09-.41H65.79l-19.26,32.6h.3l.94,1.43h12l1.83-3h4.46l0,1.52h.23l.94,1.43h12l3.12-32.33Zm-3.79,31.62H66.73l.18-3H60.39l-1.82,3h-11l18.5-31.36H80.87Zm-10-10.71.94-6.69H68.6l-3.7,6.69Zm.84-6.69-3.7,6.69h2.86l.94-6.69Zm0,0-3.7,6.69h2.86l.94-6.69Z"/><path class="cls-3" d="M66.06,85.25l-18.5,31.36h11l1.82-3h6.52l-.18,3H77.79l3.07-31.36Zm1.7,20.65H64.9l3.7-6.69h.09Z"/><path d="M129.74,86.33,129,85.22v0l-.14-.63H92.06l-11.24,32.6h.27l.94,1.43H93.49l7.58-22.08h1.12l-7.1,20.65h.27l.94,1.43H107.8l7.58-22.08h1.11l-7.09,20.65h.27l.89,1.43h11.51L131.22,92Zm-9,30.28H110.25l7.58-22.08H114l-7.58,22.08H95.94l7.58-22.08h-3.8l-7.58,22.08H81.67l10.8-31.36h35.77l1.38,5.48Z"/><polygon class="cls-3" points="129.61 90.74 120.73 116.61 110.25 116.61 117.83 94.53 114.05 94.53 106.47 116.61 95.94 116.61 103.53 94.53 99.73 94.53 92.15 116.61 81.67 116.61 92.46 85.25 128.23 85.25 129.61 90.74"/><path d="M159.58,86.33l-.89-1.42.09-.28H139.1l-5.7,6.56-6.74,19.49,1.2,6.56h.18l.89,1.43h19.54L152,108.4l-.94-1.39.09-.27h-2.68l3-8.83-.89-1.39h5.48Zm-16.23,8.16-.81,2.36h7.28L147,105h-7.27l-.8,2.37H150.3l-3.16,9.23H128.4l-1-6.07L134,91.28l5.22-6h18.73l-3.21,9.23Z"/><polygon class="cls-3" points="143.34 94.48 142.54 96.85 149.81 96.85 147 105.01 139.73 105.01 138.93 107.38 150.3 107.38 147.14 116.61 128.4 116.61 127.38 110.54 133.98 91.28 139.2 85.25 157.93 85.25 154.72 94.48 143.34 94.48"/><path d="M200.3,86.15l-.95-1.9-34.79.38-5.71,6.56-3.25,9.41,2.32,5h.18l.71,1.12H153.5l-3.61,10.47h.27l.94,1.43h19.35l5.62-6.47,0,0,.21-.61,2.94-8.58-1.75-5-.71-1.11-.13-.28h5Zm-31.5,8.34L168,96.85h8l1.65,4.72-3.07,9-5.27,6.07h-18.6l3.17-9.23h11.28L166,105H158.5l-2.14-4.72,3.08-9,5.22-6h18.81l-3.21,9.23Z"/><polygon class="cls-3" points="168.8 94.48 167.99 96.85 176.02 96.85 177.67 101.57 174.6 110.54 169.33 116.61 150.74 116.61 153.9 107.38 165.19 107.38 165.98 105.01 158.5 105.01 156.35 100.28 159.44 91.28 164.65 85.25 198.4 85.2 180.26 94.48 168.8 94.48"/><path d="M137.2,123.55l-.49-.8,0-.14H125.87l-3.15,3.62-5,14.4h.14l.52.8h6.34L127,135h4l1.75-5.06-.49-.77h3Zm-9,4.51-.45,1.31h4l-1.56,4.52h-4l-2.2,6.41h-5.8l4.81-14,2.88-3.33h10.36l-1.77,5.1Z"/><polygon class="cls-3" points="128.21 128.05 127.77 129.36 131.79 129.36 130.23 133.88 126.22 133.88 124.02 140.29 118.22 140.29 123.03 126.28 125.92 122.95 136.28 122.95 134.5 128.05 128.21 128.05"/><path d="M142.84,128l-2.47,7.13h2.07l2.47-7.13Zm-.62,6.78h-.59l1.94-5.65h.6Zm.62-6.78-2.47,7.13h2.07l2.47-7.13Zm-.62,6.78h-.59l1.94-5.65h.6Zm9.13-11.3-.42-.65,0,0,0-.29H140.45l-3.19,3.78L133.59,137l.71,3.6h.1l.52.8h10.41l3-3.19,3.78-10.93Zm-3.82,13.74-2.87,3H134.61L134,137l3.62-10.51,3-3.5h10l.69,3.56Zm-7.15-2.1h2.07l2.47-7.13h-2.07Zm3.8-6-2,5.65h-.59l1.94-5.65Z"/><path class="cls-3" d="M150.54,122.95h-10l-3,3.5L134,137l.65,3.33h10.06l2.87-3,3.7-10.75Zm-8.09,12.21h-2.07l2.47-7.13h2.07Z"/><path d="M168.28,127.31l-.74-3.8-.43-.65,0,0,0-.29H154.76l-6.21,18h.14l.52.8h6.34l.74-2.2.17,1.4h.12l.52.8h6.31l2-5.67-.52-.77,0-.14h-.37l1.76-1.76Zm-5.87,7.87h2l-1.76,5.1h-5.86l-.47-4.29h0l-1.48,4.29H149l6-17.34h11.75l.69,3.56-1.93,5.6Zm-5.75-3.5h1.9l2.85-4.74h-2.85Zm2.13-4.2,1.6.08-1.83,3.17h-.95Z"/><path class="cls-3" d="M167.41,126.51l-.69-3.56H155l-6,17.34h5.8l1.48-4.29h0l.47,4.29h5.86l1.76-5.1h-2l3.08-3.08Zm-8.86,5.18h-1.9l1.9-4.74h2.85Z"/><path d="M227.75,114.12l-.85-1.38.09-.26H208.06l-5.49,6.31-6.48,18.75,1.16,6.31h.17l.86,1.38h18.79l3.4-9.87-.9-1.34.09-.26h-2.58l2.92-8.49-.86-1.33h5.28ZM212.13,122l-.77,2.27h7l-2.7,7.86h-7l-.77,2.28h10.94l-3,8.88h-18l-1-5.83,6.36-18.54,5-5.79h18L223.07,122Z"/><polygon class="cls-3" points="212.13 121.97 211.36 124.24 218.35 124.24 215.65 132.09 208.66 132.09 207.89 134.37 218.83 134.37 215.78 143.25 197.76 143.25 196.77 137.42 203.13 118.88 208.15 113.09 226.16 113.09 223.07 121.97 212.13 121.97"/><path d="M252.38,114.08l-.73-1.12,0,0-.09-.52H230.16l-10.82,31.37h.26l.9,1.38h11l7.34-21.33h1l-6.86,20h.26l.9,1.38h11l8.45-24.54Zm-8.45,29.17H233.85l7.33-21.33h-3.61l-7.33,21.33H220.16l10.38-30.16H251l1.2,6.18Z"/><polygon class="cls-3" points="252.17 119.27 243.92 143.25 233.85 143.25 241.18 121.92 237.58 121.92 230.24 143.25 220.16 143.25 230.54 113.09 250.96 113.09 252.17 119.27"/><path d="M269.45,112.74l.09-.26H258.3l-10.81,31.37h.26l.9,1.38h11l10.68-31.11Zm-11.11,30.51h-10l10.38-30.16h10Z"/><polygon class="cls-3" points="268.72 113.09 258.34 143.25 248.31 143.25 258.69 113.09 268.72 113.09"/><path d="M297.64,112.74l.09-.26H286.45l-7.33,21.24H278l6.74-19.61-.85-1.38.09-.26H272.72L264,137.59l1.2,6.26h.17l.9,1.38h18.19l5.19-5.54,8.8-25.57ZM288.33,138l-5,5.28H265.76l-1.07-5.8,8.41-24.36h10.09l-7.33,21.23h3.64l7.33-21.23h10.09Z"/><polygon class="cls-3" points="296.91 113.09 288.33 137.97 283.35 143.25 265.76 143.25 264.69 137.46 273.1 113.09 283.18 113.09 275.85 134.32 279.49 134.32 286.83 113.09 296.91 113.09"/><path d="M324,114.12l-.86-1.38.09-.26h-19l-5.49,6.31-3.13,9.05,2.23,4.85H298l.69,1.07h-5.11l-3.47,10.09h.26l.9,1.38h18.62l5.41-6.22,3-8.88-1.68-4.85L316,124.2l-.13-.26h4.81ZM308.29,122l-.78,2.27h7.72l1.59,4.55-3,8.62-5.07,5.83H290.91l3-8.88H304.8l.78-2.28h-7.21l-2.06-4.54,3-8.67,5-5.79h18.1L319.31,122Z"/><polygon class="cls-3" points="308.29 121.97 307.51 124.24 315.23 124.24 316.83 128.79 313.87 137.42 308.8 143.25 290.91 143.25 293.95 134.37 304.81 134.37 305.58 132.09 298.37 132.09 296.31 127.55 299.27 118.88 304.29 113.09 322.39 113.09 319.31 121.97 308.29 121.97"/><path d="M349.39,114.12l-.86-1.38.09-.26H329.69l-5.49,6.31-6.47,18.75,1.16,6.31h.17l.85,1.38H338.7l3.39-9.87-.9-1.34.09-.26H338.7l2.91-8.49-.85-1.33H346ZM333.77,122l-.78,2.27h7l-2.7,7.86h-7l-.78,2.28h10.94l-3,8.88h-18l-1-5.83,6.35-18.54,5-5.79h18L344.71,122Z"/><polygon class="cls-3" points="333.77 121.97 332.99 124.24 340 124.24 337.29 132.09 330.3 132.09 329.52 134.37 340.46 134.37 337.41 143.25 319.4 143.25 318.41 137.42 324.76 118.88 329.78 113.09 347.79 113.09 344.71 121.97 333.77 121.97"/><path d="M391,113.32l-.93-1.86-34.14.37-5.6,6.43-3.19,9.23,2.28,4.94h.18l.7,1.1h-5.21l-3.54,10.28h.26l.92,1.41h19l5.51-6.35,0,0,.2-.6,2.89-8.42-1.71-4.94-.7-1.09-.13-.27h4.9Zm-30.91,8.18-.79,2.32h7.88l1.62,4.64-3,8.8-5.17,6H342.37l3.11-9.06h11.07l.78-2.33H350l-2.1-4.64,3-8.83,5.12-5.91h18.46l-3.15,9.06Z"/><polygon class="cls-3" points="360.09 121.5 359.3 123.82 367.18 123.82 368.8 128.46 365.78 137.26 360.62 143.21 342.37 143.21 345.48 134.16 356.55 134.16 357.33 131.83 349.98 131.83 347.88 127.19 350.91 118.36 356.03 112.45 389.14 112.39 371.34 121.5 360.09 121.5"/><path d="M198.82,124.08l3.38-9.82-.85-1.36.08-.26H179.9l-5.25,5.55-6.92,20.12,1.42,5.55h.21l.9,1.37h18l5.38-6.15,3.72-10.77-.89-1.36.08-.25H185.32l-2.44,7.09h-1l3.34-9.7Zm-19.14,10.3h3.59l2.44-7.09h10l-3.51,10.21-5,5.77H169.77L168.41,138l6.71-19.52,5-5.25h20.5l-3.08,8.89H183.91Z"/><polygon class="cls-3" points="183.91 122.11 179.68 134.37 183.27 134.37 185.7 127.29 195.74 127.29 192.24 137.49 187.2 143.26 169.77 143.26 168.41 138 175.12 118.48 180.11 113.23 200.62 113.23 197.53 122.11 183.91 122.11"/></g></g></svg>