<svg xmlns="http://www.w3.org/2000/svg" xmlns:xlink="http://www.w3.org/1999/xlink" viewBox="0 0 409 309"><defs><style>.cls-1{isolation:isolate;}.cls-2,.cls-8{mix-blend-mode:multiply;}.cls-3{fill:#fff;}.cls-4{opacity:0.31;}.cls-5{opacity:0.81;}.cls-6{fill:#c4c4c4;}.cls-7{fill:url(#linear-gradient);}.cls-8{fill:#e6e7e8;}.cls-9{fill:#323232;}</style><linearGradient id="linear-gradient" x1="193.76" y1="276.75" x2="193.76" y2="24.02" gradientUnits="userSpaceOnUse"><stop offset="0" stop-color="#4587bb"/><stop offset="0.33" stop-color="#469039"/><stop offset="0.66" stop-color="#ff9812"/><stop offset="1" stop-color="#e53123"/></linearGradient></defs><title>logo 1</title><g class="cls-1"><g id="Layer_1" data-name="Layer 1"><path d="M231,200.45V39.21a29.21,29.21,0,0,0-58.42,0V200.45a52.52,52.52,0,1,0,58.42,0Z"/><path d="M215.1,209.85V41.37A13.35,13.35,0,0,0,201.76,28h0a13.35,13.35,0,0,0-13.35,13.35V209.85a36.71,36.71,0,1,0,26.7,0Z"/><g class="cls-2"><path d="M254.27,244.1A52.46,52.46,0,0,0,231,200.45V39.21A29.21,29.21,0,0,0,201.76,10V296.61A52.52,52.52,0,0,0,254.27,244.1Z"/></g><path d="M198.91,18.4c.94-1.06-16.18,1.3-18.89,16.79-1.76,10,.89,31.15,0,33.59"/><path class="cls-3" d="M198.91,18.4c.07-.07,0-.15-.08-.15a1,1,0,0,0-.23,0,3.75,3.75,0,0,0-.47,0,9.35,9.35,0,0,0-.93.19,17.49,17.49,0,0,0-1.81.56A24.59,24.59,0,0,0,192,20.56a23.28,23.28,0,0,0-5.9,4.47,19.23,19.23,0,0,0-3.91,6.12,21,21,0,0,0-1,3.49c-.12.59-.2,1.21-.28,1.82s-.15,1.23-.19,1.85c-.23,2.49-.29,5-.29,7.55s0,5.07.05,7.62l.1,7.65c0,1.28,0,2.56-.05,3.84a15.78,15.78,0,0,1-.44,3.82,19,19,0,0,0-.12-3.8l-.37-3.8c-.24-2.54-.5-5.08-.67-7.63a101.89,101.89,0,0,1-.2-15.41c.05-.65.12-1.3.23-1.95s.18-1.3.33-2a20.57,20.57,0,0,1,1.21-3.81,19.53,19.53,0,0,1,4.55-6.5,22,22,0,0,1,6.57-4.25,22.84,22.84,0,0,1,3.7-1.19,17.11,17.11,0,0,1,1.91-.32,9.57,9.57,0,0,1,1,0,3.86,3.86,0,0,1,.49,0,1,1,0,0,1,.24.06C198.93,18.22,199,18.34,198.91,18.4Z"/><g class="cls-4"><polygon points="206.76 28.83 175 29 177 25 206.76 24.84 206.76 28.83"/><rect x="173.16" y="42.22" width="23.18" height="3.99"/><rect x="173.16" y="59.61" width="33.6" height="3.99"/><rect x="173.16" y="76.99" width="23.18" height="3.99"/><rect x="173.16" y="94.38" width="33.6" height="3.99"/><rect x="173.16" y="111.76" width="23.18" height="3.99"/><rect x="173.16" y="129.15" width="33.6" height="3.99"/><rect x="173.16" y="146.53" width="23.18" height="3.99"/><rect x="173.16" y="163.92" width="33.6" height="3.99"/><rect x="173.16" y="181.3" width="23.18" height="3.99"/><rect x="173.16" y="198.69" width="33.6" height="3.99"/></g><path d="M211.17,107.13c-3,1-6.45,2.36-9.42,2.36s-6.46-1.39-9.42-2.36c-8-2.63-28.1-4.33-40.83-.25l.38,7a2.64,2.64,0,0,1,3.08,2c.76,2.55,2.54,13,5.78,17.15,4,5.09,12.7,5.29,18.57,5,7.9-.34,13.07-3.85,15.28-9.79s3.45-11,4.87-12.65a3.28,3.28,0,0,1,4.59,0c1.41,1.61,2.66,6.71,4.87,12.65s7.38,9.45,15.28,9.79c5.87.25,14.54.06,18.57-5,3.24-4.1,5-14.6,5.78-17.15a2.64,2.64,0,0,1,3.08-2l.38-7C239.27,102.8,219.15,104.5,211.17,107.13Zm-57.32,3.06c0-.5,1.28-.91,2.86-.91s2.86.41,2.86.91-1.28.91-2.86.91S153.85,110.69,153.85,110.19Zm37.21,18.16c-2.12,4-5.69,6-11,6.71s-11.74-.37-15-2.29c-2.84-1.69-4.22-7-4.89-10.27s-1.87-10.19,1.44-12.48,11.63-2.46,17.15-2.12c4.16.25,13.16,1.36,14.85,4.58S192.77,125.12,191.05,128.35Zm52.29-5.86c-.68,3.23-2.06,8.58-4.89,10.27-3.23,1.92-9.62,3-15,2.29s-8.91-2.72-11-6.71c-1.72-3.23-4.24-12.65-2.55-15.87s10.7-4.33,14.85-4.58c5.51-.34,13.84-.17,17.15,2.12S244,119.27,243.34,122.5Zm3.45-11.4c-1.58,0-2.86-.41-2.86-.91s1.28-.91,2.86-.91,2.86.41,2.86.91S248.37,111.09,246.79,111.09Z"/><g class="cls-5"><path d="M178.92,106.08c-.25-.79-19.86.46-19.41,1.94"/><path class="cls-3" d="M178.92,106.08a1,1,0,0,0-.6,0l-.61.08-1.23.2c-.82,0-1.64,0-2.46.05q-2.46.1-4.92.3c-1.64.13-3.28.29-4.9.51-.81.11-1.62.23-2.41.39-.41,0-.82,0-1.23,0a4.53,4.53,0,0,0-.6.09c-.18,0-.43.07-.45.29-.08-.24.18-.42.33-.55a4.62,4.62,0,0,1,.57-.33c.39-.2.78-.37,1.18-.53.83-.16,1.65-.29,2.48-.4,1.65-.22,3.3-.38,5-.52s3.31-.24,5-.3c.83,0,1.66-.05,2.5-.06.42.07.84.15,1.25.25A2.6,2.6,0,0,1,178.92,106.08Z"/></g><path d="M49.88,245l3.72-10.81-.94-1.5.09-.29H29.06l-5.78,6.11-7.62,22.14,1.56,6.11h.23l1,1.51H38.27l5.92-6.77,4.09-11.85-1-1.5.09-.28H35l-2.68,7.8H31.22L34.89,245ZM28.82,256.33h4l2.68-7.8h11l-3.86,11.23-5.54,6.35H17.92l-1.5-5.79,7.38-21.48,5.5-5.78H51.86l-3.39,9.78h-15Z"/><polygon points="33.48 242.84 28.82 256.33 32.77 256.33 35.45 248.53 46.5 248.53 42.64 259.76 37.1 266.11 17.92 266.11 16.42 260.32 23.8 238.84 29.3 233.06 51.86 233.06 48.47 242.84 33.48 242.84"/><path d="M66.19,247.77l-3.9,7.05h3l1-7.05Zm0,0-3.9,7.05h3l1-7.05Zm13.68-15,0,0,.1-.43H63.23l-20.3,34.36h.32l1,1.51H56.93l1.93-3.11h4.7l0,1.6h.24l1,1.51H77.43l3.29-34.08Zm-4,33.33H64.22l.19-3.11H57.54l-1.92,3.11H44l19.5-33H79.12ZM65.3,254.82l1-7.05h-.1l-3.9,7.05Zm.89-7.05-3.9,7.05h3l1-7.05Zm0,0-3.9,7.05h3l1-7.05Z"/><path d="M63.51,233.06l-19.5,33H55.62L57.54,263h6.87l-.19,3.11H75.88l3.24-33Zm1.79,21.76h-3l3.9-7.05h.1Z"/><path d="M130.63,234.19l-.79-1.17v0l-.15-.66H90.92L79.07,266.76h.28l1,1.51H92.42l8-23.27h1.18l-7.48,21.76h.28l1,1.51h12.13l8-23.27h1.17l-7.47,21.76h.28l.94,1.51h12.13l9.64-28.06Zm-9.49,31.92h-11l8-23.27h-4l-8,23.27H95l8-23.27H99l-8,23.27H80l11.38-33H129l1.45,5.78Z"/><polygon points="130.49 238.84 121.14 266.11 110.09 266.11 118.08 242.84 114.09 242.84 106.1 266.11 95.01 266.11 103 242.84 99 242.84 91.01 266.11 79.96 266.11 91.34 233.06 129.04 233.06 130.49 238.84"/><path d="M162.08,234.19l-.94-1.5.09-.29H140.5l-6,6.91-7.1,20.54,1.27,6.91h.19l.94,1.51h20.59l3.71-10.81-1-1.46.1-.28h-2.82l3.19-9.31-.94-1.46h5.78ZM145,242.79l-.85,2.49h7.67l-3,8.6h-7.66l-.84,2.5h12L149,266.11H129.22l-1.08-6.4,7-20.3,5.5-6.35h19.74L157,242.79Z"/><polygon points="144.97 242.79 144.12 245.28 151.79 245.28 148.82 253.88 141.16 253.88 140.32 256.38 152.3 256.38 148.97 266.11 129.22 266.11 128.14 259.71 135.1 239.41 140.6 233.06 160.34 233.06 156.96 242.79 144.97 242.79"/><path d="M205,234l-1-2-36.67.4-6,6.91-3.43,9.92,2.45,5.31h.19l.75,1.18h-5.6l-3.8,11h.28l1,1.51h20.4l5.92-6.82,0-.05.22-.64,3.1-9L181,246.41l-.75-1.17-.14-.29h5.26Zm-33.2,8.79-.85,2.49h8.46l1.74,5-3.24,9.45-5.55,6.4h-19.6l3.34-9.73H168l.84-2.5h-7.89l-2.26-5,3.25-9.49,5.5-6.35h19.83l-3.38,9.73Z"/><polygon points="171.8 242.79 170.95 245.28 179.41 245.28 181.15 250.26 177.91 259.71 172.36 266.11 152.76 266.11 156.1 256.38 167.99 256.38 168.83 253.88 160.94 253.88 158.68 248.9 161.93 239.41 167.43 233.06 203 233 183.88 242.79 171.8 242.79"/><path d="M138.49,273.42l-.52-.84.05-.15H126.55l-3.32,3.82L118,291.43h.15l.55.84h6.68l2.32-6.76h4.24l1.84-5.33-.52-.81h3.2ZM129,278.17l-.47,1.38h4.24l-1.64,4.76h-4.23l-2.32,6.76h-6.11l5.07-14.77,3-3.51h10.92l-1.87,5.38Z"/><polygon points="129.02 278.17 128.55 279.55 132.79 279.55 131.15 284.31 126.92 284.31 124.6 291.07 118.49 291.07 123.56 276.3 126.6 272.79 137.52 272.79 135.65 278.17 129.02 278.17"/><path d="M144.44,278.15l-2.6,7.51H144l2.6-7.51Zm-.65,7.15h-.62l2-6h.63Zm.65-7.15-2.6,7.51H144l2.6-7.51Zm-.65,7.15h-.62l2-6h.63Zm9.62-11.91-.44-.68,0,0,0-.31h-11l-3.36,4-3.87,11.23.75,3.79h.11l.55.84h11l3.14-3.36,4-11.52Zm-4,14.48-3,3.2h-10.6l-.68-3.51,3.82-11.08,3.12-3.69h10.53l.73,3.75Zm-7.54-2.21H144l2.6-7.51h-2.18Zm4-6.31-2.06,6h-.62l2-6Z"/><path d="M152.55,272.79H142l-3.12,3.69-3.82,11.08.68,3.51h10.6l3-3.2,3.9-11.33ZM144,285.66h-2.18l2.6-7.51h2.18Z"/><path d="M171.25,277.39l-.78-4-.45-.68,0,0,0-.31H157l-6.55,19h.15l.55.84h6.68l.78-2.32.18,1.48h.13l.55.84h6.65l2.06-6-.55-.81,0-.15h-.39l1.85-1.85Zm-6.19,8.3h2.13l-1.85,5.38h-6.18l-.5-4.52h0L157,291.07h-6.11l6.29-18.28h12.38l.73,3.75-2,5.9ZM159,282h2l3-5h-3Zm2.25-4.43,1.68.09L161,281h-1Z"/><path d="M170.34,276.54l-.73-3.75H157.23l-6.29,18.28H157l1.56-4.52h0l.5,4.52h6.18l1.85-5.38h-2.13l3.25-3.25ZM161,282h-2l2-5h3Z"/><path d="M233.93,263.48,233,262l.09-.27H213.18l-5.79,6.65-6.83,19.76,1.22,6.65H202l.91,1.45h19.8l3.58-10.4-1-1.41.09-.27h-2.72l3.08-9-.91-1.4h5.57Zm-16.46,8.28-.81,2.39H224l-2.85,8.28h-7.37l-.81,2.4h11.53l-3.21,9.36h-19l-1-6.15L208,268.5l5.29-6.1h19L229,271.76Z"/><polygon points="217.47 271.76 216.66 274.15 224.03 274.15 221.18 282.43 213.81 282.43 213 284.83 224.53 284.83 221.32 294.19 202.32 294.19 201.28 288.04 207.98 268.5 213.27 262.4 232.26 262.4 229 271.76 217.47 271.76"/><path d="M259.89,263.44l-.77-1.18,0,0-.09-.55H236.47l-11.4,33.06h.27l.95,1.45h11.62l7.74-22.48h1.08l-7.23,21h.27l.95,1.45h11.62l8.91-25.87ZM251,294.19H240.36l7.73-22.48h-3.8l-7.73,22.48H225.93l10.94-31.79H258.4l1.27,6.51Z"/><polygon points="259.67 268.91 250.98 294.19 240.36 294.19 248.09 271.71 244.29 271.71 236.56 294.19 225.93 294.19 236.87 262.4 258.4 262.4 259.67 268.91"/><path d="M277.89,262l.09-.27H266.13l-11.39,33.06H255l1,1.45h11.57l11.26-32.79Zm-11.71,32.16H255.6l10.94-31.79h10.58Z"/><polygon points="277.12 262.4 266.18 294.19 255.6 294.19 266.54 262.4 277.12 262.4"/><path d="M307.6,262l.09-.27H295.8l-7.73,22.39h-1.14l7.1-20.67-.9-1.45.09-.27H281.33l-9.14,26.46,1.27,6.6h.18l1,1.45h19.17l5.47-5.84,9.28-27Zm-9.81,26.59-5.25,5.57H274l-1.13-6.11,8.86-25.68h10.63l-7.73,22.38h3.84l7.73-22.38h10.63Z"/><polygon points="306.83 262.4 297.79 288.62 292.54 294.19 274 294.19 272.87 288.08 281.73 262.4 292.36 262.4 284.63 284.78 288.47 284.78 296.2 262.4 306.83 262.4"/><path d="M335.37,263.48l-.91-1.45.09-.27h-20l-5.79,6.65-3.3,9.54,2.35,5.11H308l.73,1.13H303.3l-3.66,10.63h.27l1,1.45h19.63l5.7-6.56,3.21-9.36-1.77-5.11-.72-1.13-.14-.27h5.07Zm-16.55,8.28-.82,2.39h8.14l1.68,4.8L324.7,288l-5.34,6.15H300.5l3.21-9.36h11.44l.82-2.4h-7.6l-2.17-4.79,3.12-9.14,5.29-6.1h19.08l-3.25,9.36Z"/><polygon points="318.82 271.76 318 274.15 326.14 274.15 327.82 278.95 324.7 288.04 319.36 294.19 300.5 294.19 303.71 284.83 315.15 284.83 315.97 282.43 308.37 282.43 306.2 277.64 309.32 268.5 314.61 262.4 333.69 262.4 330.44 271.76 318.82 271.76"/><path d="M362.14,263.48l-.91-1.45.09-.27H341.38l-5.79,6.65-6.82,19.76,1.22,6.65h.18l.9,1.45h19.81l3.57-10.4-1-1.41.09-.27h-2.71l3.07-9-.9-1.4h5.56Zm-16.46,8.28-.82,2.39h7.38l-2.85,8.28H342l-.82,2.4h11.53l-3.21,9.36h-19l-1-6.15,6.69-19.54,5.29-6.1h19l-3.25,9.36Z"/><polygon points="345.68 271.76 344.86 274.15 352.24 274.15 349.39 282.43 342.02 282.43 341.2 284.83 352.73 284.83 349.52 294.19 330.53 294.19 329.49 288.04 336.18 268.5 341.47 262.4 360.46 262.4 357.21 271.76 345.68 271.76"/><path d="M406,262.65l-1-2-36,.39-5.91,6.78-3.37,9.73,2.4,5.21h.19l.74,1.16H357.6l-3.73,10.83h.27l1,1.48h20l5.81-6.69,0,0,.22-.63,3-8.87-1.81-5.21-.74-1.15-.14-.28h5.16Zm-32.58,8.62-.83,2.44h8.3l1.71,4.89-3.18,9.27L374,294.15H354.74L358,284.6h11.67l.82-2.45h-7.74l-2.22-4.89,3.19-9.31,5.4-6.23h19.46l-3.32,9.55Z"/><polygon points="373.43 271.27 372.59 273.71 380.89 273.71 382.6 278.6 379.42 287.87 373.97 294.15 354.74 294.15 358.02 284.6 369.69 284.6 370.51 282.15 362.77 282.15 360.55 277.26 363.74 267.95 369.14 261.72 404.04 261.66 385.28 271.27 373.43 271.27"/><path d="M203.44,274,207,263.63l-.9-1.44.09-.28H183.49L178,267.77,170.66,289l1.49,5.85h.22l.95,1.45h19l5.67-6.48,3.92-11.35L201,277l.09-.27H189.21l-2.57,7.47h-1.08L189.08,274Zm-20.17,10.85H187l2.57-7.47H200.2l-3.7,10.76-5.31,6.08H172.82l-1.44-5.55,7.07-20.57,5.27-5.54h21.61l-3.25,9.37H187.73Z"/><polygon points="187.73 271.91 183.26 284.83 187.05 284.83 189.62 277.36 200.2 277.36 196.5 288.12 191.2 294.2 172.82 294.2 171.39 288.65 178.46 268.08 183.72 262.55 205.33 262.55 202.09 271.91 187.73 271.91"/><path class="cls-6" d="M223,196.45V35.21a29.21,29.21,0,0,0-58.42,0V196.45a52.52,52.52,0,1,0,58.42,0Z"/><path class="cls-7" d="M207.1,205.85V37.37A13.35,13.35,0,0,0,193.76,24h0a13.35,13.35,0,0,0-13.35,13.35V205.85a36.71,36.71,0,1,0,26.7,0Z"/><path class="cls-8" d="M246.27,240.1A52.46,52.46,0,0,0,223,196.45V35.21A29.21,29.21,0,0,0,193.76,6V292.61A52.52,52.52,0,0,0,246.27,240.1Z"/><path class="cls-3" d="M190.91,14.4c.07-.07,0-.15-.08-.15a1,1,0,0,0-.23,0,3.75,3.75,0,0,0-.47,0,9.35,9.35,0,0,0-.93.19,17.49,17.49,0,0,0-1.81.56A24.59,24.59,0,0,0,184,16.56a23.28,23.28,0,0,0-5.9,4.47,19.23,19.23,0,0,0-3.91,6.12,21,21,0,0,0-1,3.49c-.12.59-.2,1.21-.28,1.82s-.15,1.23-.19,1.85c-.23,2.49-.29,5-.29,7.55s0,5.07.05,7.62l.1,7.65c0,1.28,0,2.56-.05,3.84a15.78,15.78,0,0,1-.44,3.82,19,19,0,0,0-.12-3.8l-.37-3.8c-.24-2.54-.5-5.08-.67-7.63a101.89,101.89,0,0,1-.2-15.41c.05-.65.12-1.3.23-1.95s.18-1.3.33-2a20.57,20.57,0,0,1,1.21-3.81,19.53,19.53,0,0,1,4.55-6.5,22,22,0,0,1,6.57-4.25,22.84,22.84,0,0,1,3.7-1.19,17.11,17.11,0,0,1,1.91-.32,9.57,9.57,0,0,1,1,0,3.86,3.86,0,0,1,.49,0,1,1,0,0,1,.24.06C190.93,14.22,191,14.34,190.91,14.4Z"/><g class="cls-4"><polygon class="cls-3" points="198.76 24.83 167 25 169 21 198.76 20.84 198.76 24.83"/><rect class="cls-3" x="165.16" y="38.22" width="23.18" height="3.99"/><rect class="cls-3" x="165.16" y="55.61" width="33.6" height="3.99"/><rect class="cls-3" x="165.16" y="72.99" width="23.18" height="3.99"/><rect class="cls-3" x="165.16" y="90.38" width="33.6" height="3.99"/><rect class="cls-3" x="165.16" y="107.76" width="23.18" height="3.99"/><rect class="cls-3" x="165.16" y="125.15" width="33.6" height="3.99"/><rect class="cls-3" x="165.16" y="142.53" width="23.18" height="3.99"/><rect class="cls-3" x="165.16" y="159.92" width="33.6" height="3.99"/><rect class="cls-3" x="165.16" y="177.3" width="23.18" height="3.99"/><rect class="cls-3" x="165.16" y="194.69" width="33.6" height="3.99"/></g><path class="cls-9" d="M203.17,103.13c-3,1-6.45,2.36-9.42,2.36s-6.46-1.39-9.42-2.36c-8-2.63-28.1-4.33-40.83-.25l.38,7a2.64,2.64,0,0,1,3.08,2c.76,2.55,2.54,13,5.78,17.15,4,5.09,12.7,5.29,18.57,5,7.9-.34,13.07-3.85,15.28-9.79s3.45-11,4.87-12.65a3.28,3.28,0,0,1,4.59,0c1.41,1.61,2.66,6.71,4.87,12.65s7.38,9.45,15.28,9.79c5.87.25,14.54.06,18.57-5,3.24-4.1,5-14.6,5.78-17.15a2.64,2.64,0,0,1,3.08-2l.38-7C231.27,98.8,211.15,100.5,203.17,103.13Zm-57.32,3.06c0-.5,1.28-.91,2.86-.91s2.86.41,2.86.91-1.28.91-2.86.91S145.85,106.69,145.85,106.19Zm37.21,18.16c-2.12,4-5.69,6-11,6.71s-11.74-.37-15-2.29c-2.84-1.69-4.22-7-4.89-10.27s-1.87-10.19,1.44-12.48,11.63-2.46,17.15-2.12c4.16.25,13.16,1.36,14.85,4.58S184.77,121.12,183.05,124.35Zm52.29-5.86c-.68,3.23-2.06,8.58-4.89,10.27-3.23,1.92-9.62,3-15,2.29s-8.91-2.72-11-6.71c-1.72-3.23-4.24-12.65-2.55-15.87s10.7-4.33,14.85-4.58c5.51-.34,13.84-.17,17.15,2.12S236,115.27,235.34,118.5Zm3.45-11.4c-1.58,0-2.86-.41-2.86-.91s1.28-.91,2.86-.91,2.86.41,2.86.91S240.37,107.09,238.79,107.09Z"/><g class="cls-5"><path class="cls-3" d="M170.92,102.08a1,1,0,0,0-.6,0l-.61.08-1.23.2c-.82,0-1.64,0-2.46.05q-2.46.1-4.92.3c-1.64.13-3.28.29-4.9.51-.81.11-1.62.23-2.41.39-.41,0-.82,0-1.23,0a4.53,4.53,0,0,0-.6.09c-.18,0-.43.07-.45.29-.08-.24.18-.42.33-.55a4.62,4.62,0,0,1,.57-.33c.39-.2.78-.37,1.18-.53.83-.16,1.65-.29,2.48-.4,1.65-.22,3.3-.38,5-.52s3.31-.24,5-.3c.83,0,1.66-.05,2.5-.06.42.07.84.15,1.25.25A2.6,2.6,0,0,1,170.92,102.08Z"/></g><path d="M41.88,241l3.72-10.81-.94-1.5.09-.29H21.06l-5.78,6.11L7.66,256.65l1.56,6.11h.23l1,1.51H30.27l5.92-6.77,4.09-11.85-1-1.5.09-.28H27l-2.68,7.8H23.22L26.89,241ZM20.82,252.33h4l2.68-7.8h11l-3.86,11.23-5.54,6.35H9.92l-1.5-5.79,7.38-21.48,5.5-5.78H43.86l-3.39,9.78h-15Z"/><polygon class="cls-3" points="25.48 238.84 20.82 252.33 24.77 252.33 27.45 244.53 38.5 244.53 34.64 255.76 29.1 262.11 9.92 262.11 8.42 256.32 15.8 234.84 21.3 229.06 43.86 229.06 40.47 238.84 25.48 238.84"/><path d="M58.19,243.77l-3.9,7.05h3l1-7.05Zm0,0-3.9,7.05h3l1-7.05Zm13.68-15,0,0,.1-.43H55.23l-20.3,34.36h.32l1,1.51H48.93l1.93-3.11h4.7l0,1.6h.24l1,1.51H69.43l3.29-34.08Zm-4,33.33H56.22l.19-3.11H49.54l-1.92,3.11H36l19.5-33H71.12ZM57.3,250.82l1-7.05h-.1l-3.9,7.05Zm.89-7.05-3.9,7.05h3l1-7.05Zm0,0-3.9,7.05h3l1-7.05Z"/><path class="cls-3" d="M55.51,229.06l-19.5,33H47.62L49.54,259h6.87l-.19,3.11H67.88l3.24-33Zm1.79,21.76h-3l3.9-7.05h.1Z"/><path d="M122.63,230.19l-.79-1.17v0l-.15-.66H82.92L71.07,262.76h.28l1,1.51H84.42l8-23.27h1.18l-7.48,21.76h.28l1,1.51H99.51l8-23.27h1.17l-7.47,21.76h.28l.94,1.51h12.13l9.64-28.06Zm-9.49,31.92h-11l8-23.27h-4l-8,23.27H87l8-23.27H91l-8,23.27H72l11.38-33H121l1.45,5.78Z"/><polygon class="cls-3" points="122.49 234.84 113.14 262.11 102.09 262.11 110.08 238.84 106.09 238.84 98.1 262.11 87.01 262.11 95 238.84 91 238.84 83.01 262.11 71.96 262.11 83.34 229.06 121.04 229.06 122.49 234.84"/><path d="M154.08,230.19l-.94-1.5.09-.29H132.5l-6,6.91-7.1,20.54,1.27,6.91h.19l.94,1.51h20.59l3.71-10.81-1-1.46.1-.28h-2.82l3.19-9.31-.94-1.46h5.78ZM137,238.79l-.85,2.49h7.67l-3,8.6h-7.66l-.84,2.5h12L141,262.11H121.22l-1.08-6.4,7-20.3,5.5-6.35h19.74L149,238.79Z"/><polygon class="cls-3" points="136.97 238.79 136.12 241.28 143.79 241.28 140.82 249.88 133.16 249.88 132.32 252.38 144.3 252.38 140.97 262.11 121.22 262.11 120.14 255.71 127.1 235.41 132.6 229.06 152.34 229.06 148.96 238.79 136.97 238.79"/><path d="M197,230l-1-2-36.67.4-6,6.91-3.43,9.92,2.45,5.31h.19l.75,1.18h-5.6l-3.8,11h.28l1,1.51h20.4l5.92-6.82,0-.05.22-.64,3.1-9L173,242.41l-.75-1.17-.14-.29h5.26Zm-33.2,8.79-.85,2.49h8.46l1.74,5-3.24,9.45-5.55,6.4h-19.6l3.34-9.73H160l.84-2.5h-7.89l-2.26-5,3.25-9.49,5.5-6.35h19.83l-3.38,9.73Z"/><polygon class="cls-3" points="163.8 238.79 162.95 241.28 171.41 241.28 173.15 246.26 169.91 255.71 164.36 262.11 144.76 262.11 148.1 252.38 159.99 252.38 160.83 249.88 152.94 249.88 150.68 244.9 153.93 235.41 159.43 229.06 195 229 175.88 238.79 163.8 238.79"/><path d="M130.49,269.42l-.52-.84.05-.15H118.55l-3.32,3.82L110,287.43h.15l.55.84h6.68l2.32-6.76h4.24l1.84-5.33-.52-.81h3.2ZM121,274.17l-.47,1.38h4.24l-1.64,4.76h-4.23l-2.32,6.76h-6.11l5.07-14.77,3-3.51h10.92l-1.87,5.38Z"/><polygon class="cls-3" points="121.02 274.17 120.55 275.55 124.79 275.55 123.15 280.31 118.92 280.31 116.6 287.07 110.49 287.07 115.56 272.3 118.6 268.79 129.52 268.79 127.65 274.17 121.02 274.17"/><path d="M136.44,274.15l-2.6,7.51H136l2.6-7.51Zm-.65,7.15h-.62l2-6h.63Zm.65-7.15-2.6,7.51H136l2.6-7.51Zm-.65,7.15h-.62l2-6h.63Zm9.62-11.91-.44-.68,0,0,0-.31h-11l-3.36,4-3.87,11.23.75,3.79h.11l.55.84h11l3.14-3.36,4-11.52Zm-4,14.48-3,3.2h-10.6l-.68-3.51,3.82-11.08,3.12-3.69h10.53l.73,3.75Zm-7.54-2.21H136l2.6-7.51h-2.18Zm4-6.31-2.06,6h-.62l2-6Z"/><path class="cls-3" d="M144.55,268.79H134l-3.12,3.69-3.82,11.08.68,3.51h10.6l3-3.2,3.9-11.33ZM136,281.66h-2.18l2.6-7.51h2.18Z"/><path d="M163.25,273.39l-.78-4-.45-.68,0,0,0-.31H149l-6.55,19h.15l.55.84h6.68l.78-2.32.18,1.48h.13l.55.84h6.65l2.06-6-.55-.81,0-.15h-.39l1.85-1.85Zm-6.19,8.3h2.13l-1.85,5.38h-6.18l-.5-4.52h0L149,287.07h-6.11l6.29-18.28h12.38l.73,3.75-2,5.9ZM151,278h2l3-5h-3Zm2.25-4.43,1.68.09L153,277h-1Z"/><path class="cls-3" d="M162.34,272.54l-.73-3.75H149.23l-6.29,18.28H149l1.56-4.52h0l.5,4.52h6.18l1.85-5.38h-2.13l3.25-3.25ZM153,278h-2l2-5h3Z"/><path d="M225.93,259.48,225,258l.09-.27H205.18l-5.79,6.65-6.83,19.76,1.22,6.65H194l.91,1.45h19.8l3.58-10.4-1-1.41.09-.27h-2.72l3.08-9-.91-1.4h5.57Zm-16.46,8.28-.81,2.39H216l-2.85,8.28h-7.37l-.81,2.4h11.53l-3.21,9.36h-19l-1-6.15L200,264.5l5.29-6.1h19L221,267.76Z"/><polygon class="cls-3" points="209.47 267.76 208.66 270.15 216.03 270.15 213.18 278.43 205.81 278.43 205 280.83 216.53 280.83 213.32 290.19 194.32 290.19 193.28 284.04 199.98 264.5 205.27 258.4 224.26 258.4 221 267.76 209.47 267.76"/><path d="M251.89,259.44l-.77-1.18,0,0-.09-.55H228.47l-11.4,33.06h.27l.95,1.45h11.62l7.74-22.48h1.08l-7.23,21h.27l.95,1.45h11.62l8.91-25.87ZM243,290.19H232.36l7.73-22.48h-3.8l-7.73,22.48H217.93l10.94-31.79H250.4l1.27,6.51Z"/><polygon class="cls-3" points="251.67 264.91 242.98 290.19 232.36 290.19 240.09 267.71 236.29 267.71 228.56 290.19 217.93 290.19 228.87 258.4 250.4 258.4 251.67 264.91"/><path d="M269.89,258l.09-.27H258.13l-11.39,33.06H247l1,1.45h11.57l11.26-32.79Zm-11.71,32.16H247.6l10.94-31.79h10.58Z"/><polygon class="cls-3" points="269.12 258.4 258.18 290.19 247.6 290.19 258.54 258.4 269.12 258.4"/><path d="M299.6,258l.09-.27H287.8l-7.73,22.39h-1.14l7.1-20.67-.9-1.45.09-.27H273.33l-9.14,26.46,1.27,6.6h.18l1,1.45h19.17l5.47-5.84,9.28-27Zm-9.81,26.59-5.25,5.57H266l-1.13-6.11,8.86-25.68h10.63l-7.73,22.38h3.84l7.73-22.38h10.63Z"/><polygon class="cls-3" points="298.83 258.4 289.79 284.62 284.54 290.19 266 290.19 264.87 284.08 273.73 258.4 284.36 258.4 276.63 280.78 280.47 280.78 288.2 258.4 298.83 258.4"/><path d="M327.37,259.48l-.91-1.45.09-.27h-20l-5.79,6.65-3.3,9.54,2.35,5.11H300l.73,1.13H295.3l-3.66,10.63h.27l1,1.45h19.63l5.7-6.56,3.21-9.36-1.77-5.11-.72-1.13-.14-.27h5.07Zm-16.55,8.28-.82,2.39h8.14l1.68,4.8L316.7,284l-5.34,6.15H292.5l3.21-9.36h11.44l.82-2.4h-7.6l-2.17-4.79,3.12-9.14,5.29-6.1h19.08l-3.25,9.36Z"/><polygon class="cls-3" points="310.82 267.76 310 270.15 318.14 270.15 319.82 274.95 316.7 284.04 311.36 290.19 292.5 290.19 295.71 280.83 307.15 280.83 307.97 278.43 300.37 278.43 298.2 273.64 301.32 264.5 306.61 258.4 325.69 258.4 322.44 267.76 310.82 267.76"/><path d="M354.14,259.48l-.91-1.45.09-.27H333.38l-5.79,6.65-6.82,19.76,1.22,6.65h.18l.9,1.45h19.81l3.57-10.4-1-1.41.09-.27h-2.71l3.07-9-.9-1.4h5.56Zm-16.46,8.28-.82,2.39h7.38l-2.85,8.28H334l-.82,2.4h11.53l-3.21,9.36h-19l-1-6.15,6.69-19.54,5.29-6.1h19l-3.25,9.36Z"/><polygon class="cls-3" points="337.68 267.76 336.86 270.15 344.24 270.15 341.39 278.43 334.02 278.43 333.2 280.83 344.73 280.83 341.52 290.19 322.53 290.19 321.49 284.04 328.18 264.5 333.47 258.4 352.46 258.4 349.21 267.76 337.68 267.76"/><path d="M398,258.65l-1-2-36,.39-5.91,6.78-3.37,9.73,2.4,5.21h.19l.74,1.16H349.6l-3.73,10.83h.27l1,1.48h20l5.81-6.69,0,0,.22-.63,3-8.87-1.81-5.21-.74-1.15-.14-.28h5.16Zm-32.58,8.62-.83,2.44h8.3l1.71,4.89-3.18,9.27L366,290.15H346.74L350,280.6h11.67l.82-2.45h-7.74l-2.22-4.89,3.19-9.31,5.4-6.23h19.46l-3.32,9.55Z"/><polygon class="cls-3" points="365.43 267.27 364.59 269.71 372.89 269.71 374.6 274.6 371.42 283.87 365.97 290.15 346.74 290.15 350.02 280.6 361.69 280.6 362.51 278.15 354.77 278.15 352.55 273.26 355.74 263.95 361.14 257.72 396.04 257.66 377.28 267.27 365.43 267.27"/><path d="M195.44,270,199,259.63l-.9-1.44.09-.28H175.49L170,263.77,162.66,285l1.49,5.85h.22l.95,1.45h19l5.67-6.48,3.92-11.35L193,273l.09-.27H181.21l-2.57,7.47h-1.08L181.08,270Zm-20.17,10.85H179l2.57-7.47H192.2l-3.7,10.76-5.31,6.08H164.82l-1.44-5.55,7.07-20.57,5.27-5.54h21.61l-3.25,9.37H179.73Z"/><polygon class="cls-3" points="179.73 267.91 175.26 280.83 179.05 280.83 181.62 273.36 192.2 273.36 188.5 284.12 183.2 290.2 164.82 290.2 163.39 284.65 170.46 264.08 175.72 258.55 197.33 258.55 194.09 267.91 179.73 267.91"/></g></g></svg>