<?xml version="1.0" encoding="utf-8"?>
<!-- Generator: Adobe Illustrator 21.1.0, SVG Export Plug-In . SVG Version: 6.00 Build 0)  -->
<svg version="1.1" xmlns="http://www.w3.org/2000/svg" xmlns:xlink="http://www.w3.org/1999/xlink" x="0px" y="0px"
	 viewBox="0 0 401 300" style="enable-background:new 0 0 401 300;" xml:space="preserve">
<style type="text/css">
	.st0{display:none;}
	.st1{display:inline;fill:#C69C6D;}
	.st2{fill:#C4C4C4;}
	.st3{fill:url(#SVGID_1_);}
	.st4{fill:#E6E7E8;}
	.st5{fill:#FFFFFF;}
	.st6{opacity:0.31;}
	.st7{fill:#323232;}
	.st8{opacity:0.81;}
</style>
<g id="Layer_3" class="st0">
	<rect class="st1" width="401" height="300"/>
</g>
<g id="Layer_1">
	<g>
		<g>
			<path class="st2" d="M223,196.5V35.2C223,19.1,209.9,6,193.8,6c-16.1,0-29.2,13.1-29.2,29.2v161.2c-14.1,9.4-23.3,25.5-23.3,43.6
				c0,29,23.5,52.5,52.5,52.5c29,0,52.5-23.5,52.5-52.5C246.3,221.9,237,205.9,223,196.5z"/>
			<linearGradient id="SVGID_1_" gradientUnits="userSpaceOnUse" x1="193.7556" y1="276.7534" x2="193.7556" y2="24.0247">
				<stop  offset="0" style="stop-color:#4587BB"/>
				<stop  offset="0.33" style="stop-color:#469039"/>
				<stop  offset="0.66" style="stop-color:#FF9812"/>
				<stop  offset="1" style="stop-color:#E53123"/>
			</linearGradient>
			<path class="st3" d="M207.1,205.8V37.4c0-7.4-6-13.3-13.3-13.3h0c-7.4,0-13.3,6-13.3,13.3v168.5c-14.1,5.5-24,19.6-23.3,35.8
				c0.8,18.7,16,34,34.6,35c21.2,1.1,38.8-15.7,38.8-36.7C230.5,224.5,220.8,211.2,207.1,205.8z"/>
			<path class="st4" d="M246.3,240.1c0-18.2-9.3-34.2-23.3-43.6V35.2C223,19.1,209.9,6,193.8,6v286.6
				C222.8,292.6,246.3,269.1,246.3,240.1z"/>
		</g>
		<g>
			<path class="st5" d="M190.9,14.4c0.1-0.1,0-0.1-0.1-0.2c-0.1,0-0.2,0-0.2,0c-0.2,0-0.3,0-0.5,0c-0.3,0-0.6,0.1-0.9,0.2
				c-0.6,0.2-1.2,0.3-1.8,0.6c-1.2,0.4-2.3,0.9-3.4,1.5c-2.2,1.2-4.2,2.7-5.9,4.5c-1.7,1.8-3,3.9-3.9,6.1c-0.4,1.1-0.8,2.3-1,3.5
				c-0.1,0.6-0.2,1.2-0.3,1.8c-0.1,0.6-0.2,1.2-0.2,1.9c-0.2,2.5-0.3,5-0.3,7.5c0,2.5,0,5.1,0.1,7.6l0.1,7.6c0,1.3,0,2.6-0.1,3.8
				c-0.1,1.3-0.1,2.6-0.4,3.8c0.2-1.3,0-2.5-0.1-3.8l-0.4-3.8c-0.2-2.5-0.5-5.1-0.7-7.6c-0.4-5.1-0.6-10.2-0.2-15.4
				c0.1-0.6,0.1-1.3,0.2-1.9c0.1-0.7,0.2-1.3,0.3-2c0.3-1.3,0.7-2.6,1.2-3.8c1.1-2.4,2.6-4.7,4.6-6.5c1.9-1.8,4.2-3.2,6.6-4.3
				c1.2-0.5,2.4-0.9,3.7-1.2c0.6-0.1,1.3-0.3,1.9-0.3c0.3,0,0.6-0.1,1,0c0.2,0,0.3,0,0.5,0c0.1,0,0.2,0,0.2,0.1
				C190.9,14.2,191,14.3,190.9,14.4z"/>
		</g>
		<g class="st6">
			<polygon class="st5" points="198.8,24.8 167,25 169,21 198.8,20.8 			"/>
			<rect x="165.2" y="38.2" class="st5" width="23.2" height="4"/>
			<rect x="165.2" y="55.6" class="st5" width="33.6" height="4"/>
			<rect x="165.2" y="73" class="st5" width="23.2" height="4"/>
			<rect x="165.2" y="90.4" class="st5" width="33.6" height="4"/>
			<rect x="165.2" y="107.8" class="st5" width="23.2" height="4"/>
			<rect x="165.2" y="125.1" class="st5" width="33.6" height="4"/>
			<rect x="165.2" y="142.5" class="st5" width="23.2" height="4"/>
			<rect x="165.2" y="159.9" class="st5" width="33.6" height="4"/>
			<rect x="165.2" y="177.3" class="st5" width="23.2" height="4"/>
			<rect x="165.2" y="194.7" class="st5" width="33.6" height="4"/>
		</g>
		<g>
			<path class="st7" d="M203.2,103.1c-3,1-6.5,2.4-9.4,2.4s-6.5-1.4-9.4-2.4c-8-2.6-28.1-4.3-40.8-0.3l0.4,7c0,0,2.3-0.5,3.1,2
				c0.8,2.5,2.5,13,5.8,17.1c4,5.1,12.7,5.3,18.6,5c7.9-0.3,13.1-3.8,15.3-9.8c2.2-5.9,3.5-11,4.9-12.6c0.8-0.9,1.6-0.9,2.3-0.9
				c0.7,0,1.5,0.1,2.3,0.9c1.4,1.6,2.7,6.7,4.9,12.6c2.2,5.9,7.4,9.5,15.3,9.8c5.9,0.3,14.5,0.1,18.6-5c3.2-4.1,5-14.6,5.8-17.1
				c0.8-2.5,3.1-2,3.1-2l0.4-7C231.3,98.8,211.2,100.5,203.2,103.1z M145.8,106.2c0-0.5,1.3-0.9,2.9-0.9c1.6,0,2.9,0.4,2.9,0.9
				c0,0.5-1.3,0.9-2.9,0.9C147.1,107.1,145.8,106.7,145.8,106.2z M183.1,124.4c-2.1,4-5.7,6-11,6.7c-5.3,0.7-11.7-0.4-15-2.3
				c-2.8-1.7-4.2-7-4.9-10.3c-0.7-3.2-1.9-10.2,1.4-12.5c3.3-2.3,11.6-2.5,17.1-2.1c4.2,0.3,13.2,1.4,14.9,4.6
				C187.3,111.7,184.8,121.1,183.1,124.4z M235.3,118.5c-0.7,3.2-2.1,8.6-4.9,10.3c-3.2,1.9-9.6,3-15,2.3c-5.3-0.7-8.9-2.7-11-6.7
				c-1.7-3.2-4.2-12.6-2.5-15.9c1.7-3.2,10.7-4.3,14.9-4.6c5.5-0.3,13.8-0.2,17.1,2.1C237.2,108.3,236,115.3,235.3,118.5z
				 M238.8,107.1c-1.6,0-2.9-0.4-2.9-0.9c0-0.5,1.3-0.9,2.9-0.9c1.6,0,2.9,0.4,2.9,0.9C241.7,106.7,240.4,107.1,238.8,107.1z"/>
			<g class="st8">
				<path class="st5" d="M170.9,102.1c-0.2-0.1-0.4,0-0.6,0c-0.2,0-0.4,0.1-0.6,0.1l-1.2,0.2c-0.8,0-1.6,0-2.5,0.1
					c-1.6,0.1-3.3,0.2-4.9,0.3c-1.6,0.1-3.3,0.3-4.9,0.5c-0.8,0.1-1.6,0.2-2.4,0.4c-0.4,0-0.8,0-1.2,0c-0.2,0-0.4,0-0.6,0.1
					c-0.2,0-0.4,0.1-0.5,0.3c-0.1-0.2,0.2-0.4,0.3-0.5c0.2-0.1,0.4-0.2,0.6-0.3c0.4-0.2,0.8-0.4,1.2-0.5c0.8-0.2,1.7-0.3,2.5-0.4
					c1.7-0.2,3.3-0.4,5-0.5c1.7-0.1,3.3-0.2,5-0.3c0.8,0,1.7-0.1,2.5-0.1c0.4,0.1,0.8,0.2,1.3,0.3
					C170.1,101.7,170.6,101.8,170.9,102.1z"/>
			</g>
		</g>
	</g>
	<g>
		<g>
			<g>
				<path d="M41.9,241l3.7-10.8l-0.9-1.5l0.1-0.3H21.1l-5.8,6.1l-7.6,22.1l1.6,6.1h0.2l1,1.5h19.8l5.9-6.8l4.1-11.9l-1-1.5l0.1-0.3
					H27l-2.7,7.8h-1.1l3.7-10.7H41.9z M20.8,252.3h4l2.7-7.8h11l-3.9,11.2l-5.5,6.3H9.9l-1.5-5.8l7.4-21.5l5.5-5.8h22.6l-3.4,9.8
					h-15L20.8,252.3z"/>
				<polygon class="st5" points="25.5,238.8 20.8,252.3 24.8,252.3 27.5,244.5 38.5,244.5 34.6,255.8 29.1,262.1 9.9,262.1 
					8.4,256.3 15.8,234.8 21.3,229.1 43.9,229.1 40.5,238.8 				"/>
			</g>
			<path d="M58.2,243.8l-3.9,7.1h3L58.2,243.8L58.2,243.8z M58.2,243.8l-3.9,7.1h3L58.2,243.8L58.2,243.8z M71.9,228.8L71.9,228.8
				l0-0.4H55.2l-20.3,34.4h0.3l1,1.5h12.7l1.9-3.1h4.7l0,1.6h0.2l1,1.5h12.7l3.3-34.1L71.9,228.8z M67.9,262.1H56.2l0.2-3.1h-6.9
				l-1.9,3.1H36l19.5-33h15.6L67.9,262.1z M57.3,250.8l1-7.1h-0.1l-3.9,7.1H57.3z M58.2,243.8l-3.9,7.1h3L58.2,243.8L58.2,243.8z
				 M58.2,243.8l-3.9,7.1h3L58.2,243.8L58.2,243.8z"/>
			<path class="st5" d="M55.5,229.1l-19.5,33h11.6l1.9-3.1h6.9l-0.2,3.1h11.7l3.2-33H55.5z M57.3,250.8h-3l3.9-7.1h0.1L57.3,250.8z"
				/>
			<path d="M122.6,230.2l-0.8-1.2v0l-0.2-0.7H82.9l-11.8,34.4h0.3l1,1.5h12.1l8-23.3h1.2l-7.5,21.8h0.3l1,1.5h12.1l8-23.3h1.2
				l-7.5,21.8h0.3l0.9,1.5h12.1l9.6-28.1L122.6,230.2z M113.1,262.1h-11l8-23.3h-4l-8,23.3H87l8-23.3h-4l-8,23.3H72l11.4-33H121
				l1.5,5.8L113.1,262.1z"/>
			<polygon class="st5" points="122.5,234.8 113.1,262.1 102.1,262.1 110.1,238.8 106.1,238.8 98.1,262.1 87,262.1 95,238.8 
				91,238.8 83,262.1 72,262.1 83.3,229.1 121,229.1 			"/>
			<path d="M154.1,230.2l-0.9-1.5l0.1-0.3h-20.7l-6,6.9l-7.1,20.5l1.3,6.9h0.2l0.9,1.5h20.6l3.7-10.8l-1-1.5l0.1-0.3h-2.8l3.2-9.3
				l-0.9-1.5h5.8L154.1,230.2z M137,238.8l-0.8,2.5h7.7l-3,8.6h-7.7l-0.8,2.5h12l-3.3,9.7h-19.8l-1.1-6.4l7-20.3l5.5-6.3h19.7
				l-3.4,9.7H137z"/>
			<polygon class="st5" points="137,238.8 136.1,241.3 143.8,241.3 140.8,249.9 133.2,249.9 132.3,252.4 144.3,252.4 141,262.1 
				121.2,262.1 120.1,255.7 127.1,235.4 132.6,229.1 152.3,229.1 149,238.8 			"/>
			<g>
				<path d="M197,230l-1-2l-36.7,0.4l-6,6.9l-3.4,9.9l2.5,5.3h0.2l0.8,1.2h-5.6l-3.8,11h0.3l1,1.5h20.4l5.9-6.8l0-0.1l0.2-0.6l3.1-9
					l-1.8-5.3l-0.8-1.2l-0.1-0.3h5.3L197,230z M163.8,238.8l-0.8,2.5h8.5l1.7,5l-3.2,9.4l-5.5,6.4h-19.6l3.3-9.7H160l0.8-2.5h-7.9
					l-2.3-5l3.3-9.5l5.5-6.3h19.8l-3.4,9.7H163.8z"/>
				<polygon class="st5" points="163.8,238.8 163,241.3 171.4,241.3 173.2,246.3 169.9,255.7 164.4,262.1 144.8,262.1 148.1,252.4 
					160,252.4 160.8,249.9 152.9,249.9 150.7,244.9 153.9,235.4 159.4,229.1 195,229 175.9,238.8 				"/>
			</g>
		</g>
		<g>
			<path d="M130.5,269.4l-0.5-0.8l0.1-0.1h-11.5l-3.3,3.8l-5.2,15.2h0.2l0.5,0.8h6.7l2.3-6.8h4.2l1.8-5.3l-0.5-0.8h3.2L130.5,269.4z
				 M121,274.2l-0.5,1.4h4.2l-1.6,4.8h-4.2l-2.3,6.8h-6.1l5.1-14.8l3-3.5h10.9l-1.9,5.4H121z"/>
			<polygon class="st5" points="121,274.2 120.5,275.5 124.8,275.5 123.2,280.3 118.9,280.3 116.6,287.1 110.5,287.1 115.6,272.3 
				118.6,268.8 129.5,268.8 127.7,274.2 			"/>
			<path d="M136.4,274.1l-2.6,7.5h2.2l2.6-7.5H136.4z M135.8,281.3h-0.6l2-6h0.6L135.8,281.3z M136.4,274.1l-2.6,7.5h2.2l2.6-7.5
				H136.4z M135.8,281.3h-0.6l2-6h0.6L135.8,281.3z M145.4,269.4l-0.4-0.7l0,0l0-0.3h-11l-3.4,4l-3.9,11.2l0.8,3.8h0.1l0.5,0.8h11
				l3.1-3.4l4-11.5L145.4,269.4z M141.4,283.9l-3,3.2h-10.6l-0.7-3.5l3.8-11.1l3.1-3.7h10.5l0.7,3.8L141.4,283.9z M133.8,281.7h2.2
				l2.6-7.5h-2.2L133.8,281.7z M137.8,275.3l-2.1,6h-0.6l2-6H137.8z"/>
			<path class="st5" d="M144.5,268.8H134l-3.1,3.7l-3.8,11.1l0.7,3.5h10.6l3-3.2l3.9-11.3L144.5,268.8z M136,281.7h-2.2l2.6-7.5h2.2
				L136,281.7z"/>
			<path d="M163.3,273.4l-0.8-4l-0.4-0.7l0,0l0-0.3h-13l-6.5,19h0.1l0.6,0.8h6.7l0.8-2.3l0.2,1.5h0.1l0.5,0.8h6.7l2.1-6l-0.5-0.8
				l0-0.2h-0.4l1.9-1.8L163.3,273.4z M157.1,281.7h2.1l-1.8,5.4h-6.2l-0.5-4.5h0l-1.6,4.5h-6.1l6.3-18.3h12.4l0.7,3.8l-2,5.9
				L157.1,281.7z M151,278h2l3-5h-3L151,278z M153.2,273.6l1.7,0.1L153,277h-1L153.2,273.6z"/>
			<path class="st5" d="M162.3,272.5l-0.7-3.8h-12.4l-6.3,18.3h6.1l1.6-4.5h0l0.5,4.5h6.2l1.8-5.4h-2.1l3.3-3.3L162.3,272.5z
				 M153,278h-2l2-5h3L153,278z"/>
		</g>
		<g>
			<path d="M225.9,259.5L225,258l0.1-0.3h-19.9l-5.8,6.6l-6.8,19.8l1.2,6.7h0.2l0.9,1.4h19.8l3.6-10.4l-1-1.4l0.1-0.3h-2.7l3.1-9
				l-0.9-1.4h5.6L225.9,259.5z M209.5,267.8l-0.8,2.4h7.4l-2.9,8.3h-7.4l-0.8,2.4h11.5l-3.2,9.4h-19l-1-6.2l6.7-19.5l5.3-6.1h19
				l-3.3,9.4H209.5z"/>
			<polygon class="st5" points="209.5,267.8 208.7,270.1 216,270.1 213.2,278.4 205.8,278.4 205,280.8 216.5,280.8 213.3,290.2 
				194.3,290.2 193.3,284 200,264.5 205.3,258.4 224.3,258.4 221,267.8 			"/>
			<path d="M251.9,259.4l-0.8-1.2l0,0l-0.1-0.5h-22.5l-11.4,33.1h0.3l0.9,1.4h11.6l7.7-22.5h1.1l-7.2,21h0.3l0.9,1.4h11.6l8.9-25.9
				L251.9,259.4z M243,290.2h-10.6l7.7-22.5h-3.8l-7.7,22.5h-10.6l10.9-31.8h21.5l1.3,6.5L243,290.2z"/>
			<polygon class="st5" points="251.7,264.9 243,290.2 232.4,290.2 240.1,267.7 236.3,267.7 228.6,290.2 217.9,290.2 228.9,258.4 
				250.4,258.4 			"/>
			<path d="M269.9,258l0.1-0.3h-11.8l-11.4,33.1h0.3l1,1.4h11.6l11.3-32.8L269.9,258z M258.2,290.2h-10.6l10.9-31.8h10.6
				L258.2,290.2z"/>
			<polygon class="st5" points="269.1,258.4 258.2,290.2 247.6,290.2 258.5,258.4 			"/>
			<path d="M299.6,258l0.1-0.3h-11.9l-7.7,22.4h-1.1l7.1-20.7l-0.9-1.5l0.1-0.3h-11.9l-9.1,26.5l1.3,6.6h0.2l1,1.4h19.2l5.5-5.8
				l9.3-27L299.6,258z M289.8,284.6l-5.3,5.6H266l-1.1-6.1l8.9-25.7h10.6l-7.7,22.4h3.8l7.7-22.4h10.6L289.8,284.6z"/>
			<polygon class="st5" points="298.8,258.4 289.8,284.6 284.5,290.2 266,290.2 264.9,284.1 273.7,258.4 284.4,258.4 276.6,280.8 
				280.5,280.8 288.2,258.4 			"/>
			<path d="M327.4,259.5l-0.9-1.5l0.1-0.3h-20l-5.8,6.6l-3.3,9.5l2.4,5.1h0.2l0.7,1.1h-5.4l-3.7,10.6h0.3l1,1.4h19.6l5.7-6.6
				l3.2-9.4l-1.8-5.1l-0.7-1.1l-0.1-0.3h5.1L327.4,259.5z M310.8,267.8l-0.8,2.4h8.1l1.7,4.8l-3.1,9.1l-5.3,6.2h-18.9l3.2-9.4h11.4
				l0.8-2.4h-7.6l-2.2-4.8l3.1-9.1l5.3-6.1h19.1l-3.3,9.4H310.8z"/>
			<polygon class="st5" points="310.8,267.8 310,270.1 318.1,270.1 319.8,275 316.7,284 311.4,290.2 292.5,290.2 295.7,280.8 
				307.2,280.8 308,278.4 300.4,278.4 298.2,273.6 301.3,264.5 306.6,258.4 325.7,258.4 322.4,267.8 			"/>
			<path d="M354.1,259.5l-0.9-1.5l0.1-0.3h-19.9l-5.8,6.6l-6.8,19.8l1.2,6.7h0.2l0.9,1.4h19.8l3.6-10.4l-1-1.4l0.1-0.3h-2.7l3.1-9
				l-0.9-1.4h5.6L354.1,259.5z M337.7,267.8l-0.8,2.4h7.4l-2.8,8.3H334l-0.8,2.4h11.5l-3.2,9.4h-19l-1-6.2l6.7-19.5l5.3-6.1h19
				l-3.3,9.4H337.7z"/>
			<polygon class="st5" points="337.7,267.8 336.9,270.1 344.2,270.1 341.4,278.4 334,278.4 333.2,280.8 344.7,280.8 341.5,290.2 
				322.5,290.2 321.5,284 328.2,264.5 333.5,258.4 352.5,258.4 349.2,267.8 			"/>
			<g>
				<path d="M398,258.6l-1-2l-36,0.4l-5.9,6.8l-3.4,9.7l2.4,5.2h0.2l0.7,1.2h-5.5l-3.7,10.8h0.3l1,1.5h20l5.8-6.7l0,0l0.2-0.6l3-8.9
					l-1.8-5.2l-0.7-1.1l-0.1-0.3h5.2L398,258.6z M365.4,267.3l-0.8,2.4h8.3l1.7,4.9l-3.2,9.3l-5.4,6.3h-19.2l3.3-9.5h11.7l0.8-2.5
					h-7.7l-2.2-4.9l3.2-9.3l5.4-6.2h19.5l-3.3,9.5H365.4z"/>
				<polygon class="st5" points="365.4,267.3 364.6,269.7 372.9,269.7 374.6,274.6 371.4,283.9 366,290.2 346.7,290.2 350,280.6 
					361.7,280.6 362.5,278.2 354.8,278.2 352.6,273.3 355.7,264 361.1,257.7 396,257.7 377.3,267.3 				"/>
			</g>
		</g>
	</g>
	<g>
		<path d="M195.4,270l3.6-10.4l-0.9-1.4l0.1-0.3h-22.7l-5.5,5.9l-7.3,21.2l1.5,5.9h0.2l0.9,1.4h19l5.7-6.5l3.9-11.4L193,273l0.1-0.3
			h-11.8l-2.6,7.5h-1.1l3.5-10.2H195.4z M175.3,280.8h3.8l2.6-7.5h10.6l-3.7,10.8l-5.3,6.1h-18.4l-1.4-5.5l7.1-20.6l5.3-5.5h21.6
			l-3.2,9.4h-14.4L175.3,280.8z"/>
		<polygon class="st5" points="179.7,267.9 175.3,280.8 179,280.8 181.6,273.4 192.2,273.4 188.5,284.1 183.2,290.2 164.8,290.2 
			163.4,284.7 170.5,264.1 175.7,258.5 197.3,258.5 194.1,267.9 		"/>
	</g>
</g>
</svg>
