<?xml version="1.0" encoding="utf-8"?>
<!-- Generator: Adobe Illustrator 21.0.2, SVG Export Plug-In . SVG Version: 6.00 Build 0)  -->
<svg version="1.1" id="Layer_1" xmlns="http://www.w3.org/2000/svg" xmlns:xlink="http://www.w3.org/1999/xlink" x="0px" y="0px"
	 viewBox="0 0 432 432" style="enable-background:new 0 0 432 432;" xml:space="preserve">
<style type="text/css">
	.st0{fill:url(#SVGID_1_);}
</style>
<linearGradient id="SVGID_1_" gradientUnits="userSpaceOnUse" x1="12.826" y1="220.498" x2="402.8582" y2="220.498">
	<stop  offset="9.045584e-02" style="stop-color:#FF0000"/>
	<stop  offset="0.307" style="stop-color:#810000"/>
	<stop  offset="0.3646" style="stop-color:#6C0000"/>
	<stop  offset="0.4536" style="stop-color:#520000"/>
	<stop  offset="0.5064" style="stop-color:#480000"/>
	<stop  offset="0.601" style="stop-color:#570000"/>
	<stop  offset="0.7286" style="stop-color:#710000"/>
	<stop  offset="0.7992" style="stop-color:#9E0000"/>
	<stop  offset="0.8957" style="stop-color:#D70000"/>
	<stop  offset="0.9423" style="stop-color:#ED0000"/>
</linearGradient>
<path class="st0" d="M400,106.7c-7.3-31.4-28.5-58.2-56.8-71.7c-12.7-6-27.1-9.2-41.5-9.2c-18,0-35.2,4.8-49.8,13.8
	c-21.1,13.1-32.7,35.1-40.6,52.8c-1.2,2.6-2.3,5.4-3.4,8c-3.2-7.8-6.9-15.2-10.7-22.3c-1.4-2.7-2.8-5.4-4.2-8.1
	c-5.9-11.6-16.8-23.2-29.2-30.9c-14.4-9-31.5-13.7-49.4-13.7c-14.6,0-29.1,3.2-41.9,9.3C44.3,48.3,23,75.1,15.7,106.6
	c-7,30.2-1.1,62.9,16.2,90.1c11.3,17.6,26.6,31.9,41.4,45.8l3.5,3.2c7.7,7.2,15.3,14.9,22.7,22.2c3.1,3.1,6.2,6.2,9.3,9.3
	c14.4,14.3,28.8,29.1,42.5,43.9c2.2,2.3,4.3,4.6,6.5,6.9c10.8,11.3,21.9,23,29.4,36.4c8.7,15.3,15.2,28.3,14.3,44.5
	c-0.1,1.6,0.5,3.3,1.7,4.5c1.1,1.2,2.7,1.9,4.4,1.9h0.2c1.7,0,3.3-0.7,4.4-1.9s1.7-2.9,1.6-4.5c-0.9-16.2,5.7-29.2,14.3-44.5
	c6.3-11.1,14.9-20.5,23.8-30.3l2.6-2.9c26.9-29.7,55.1-58.5,84-85.6l3.8-3.5c14.7-13.8,29.9-28,41.1-45.5
	C401.1,169.6,407,136.8,400,106.7z"/>
</svg>
